<svg width="64" height="64" viewBox="0 0 64 64" fill="none" xmlns="http://www.w3.org/2000/svg">
<mask id="mask0_1_38" style="mask-type:alpha" maskUnits="userSpaceOnUse" x="0" y="0" width="64" height="64">
<rect width="64" height="64" fill="#D9D9D9"/>
</mask>
<g mask="url(#mask0_1_38)">
<path d="M29.2001 36.5333L25.4001 32.7333C24.8667 32.2 24.2445 31.9333 23.5334 31.9333C22.8223 31.9333 22.2001 32.2 21.6667 32.7333C21.1334 33.2667 20.8667 33.9 20.8667 34.6333C20.8667 35.3667 21.1334 36 21.6667 36.5333L27.3334 42.2667C27.8667 42.8 28.489 43.0667 29.2001 43.0667C29.9112 43.0667 30.5334 42.8 31.0667 42.2667L42.4001 30.9333C42.9334 30.4 43.2001 29.7667 43.2001 29.0333C43.2001 28.3 42.9334 27.6667 42.4001 27.1333C41.8667 26.6 41.2334 26.3333 40.5001 26.3333C39.7667 26.3333 39.1334 26.6 38.6001 27.1333L29.2001 36.5333ZM32.0001 58.6667C28.6667 58.6667 25.5445 58.0333 22.6334 56.7667C19.7223 55.5 17.189 53.7889 15.0334 51.6333C12.8778 49.4778 11.1667 46.9444 9.90007 44.0333C8.6334 41.1222 8.00007 38 8.00007 34.6667C8.00007 31.3333 8.6334 28.2111 9.90007 25.3C11.1667 22.3889 12.8778 19.8556 15.0334 17.7C17.189 15.5444 19.7223 13.8333 22.6334 12.5667C25.5445 11.3 28.6667 10.6667 32.0001 10.6667C35.3334 10.6667 38.4556 11.3 41.3667 12.5667C44.2778 13.8333 46.8112 15.5444 48.9667 17.7C51.1223 19.8556 52.8334 22.3889 54.1001 25.3C55.3667 28.2111 56.0001 31.3333 56.0001 34.6667C56.0001 38 55.3667 41.1222 54.1001 44.0333C52.8334 46.9444 51.1223 49.4778 48.9667 51.6333C46.8112 53.7889 44.2778 55.5 41.3667 56.7667C38.4556 58.0333 35.3334 58.6667 32.0001 58.6667ZM5.46673 19.4667C4.97784 18.9778 4.7334 18.3556 4.7334 17.6C4.7334 16.8444 4.97784 16.2222 5.46673 15.7333L13.0667 8.13333C13.5556 7.64444 14.1778 7.4 14.9334 7.4C15.689 7.4 16.3112 7.64444 16.8001 8.13333C17.289 8.62222 17.5334 9.24444 17.5334 10C17.5334 10.7556 17.289 11.3778 16.8001 11.8667L9.20007 19.4667C8.71118 19.9556 8.08895 20.2 7.3334 20.2C6.57784 20.2 5.95562 19.9556 5.46673 19.4667ZM58.5334 19.4667C58.0445 19.9556 57.4223 20.2 56.6667 20.2C55.9112 20.2 55.289 19.9556 54.8001 19.4667L47.2001 11.8667C46.7112 11.3778 46.4667 10.7556 46.4667 10C46.4667 9.24444 46.7112 8.62222 47.2001 8.13333C47.689 7.64444 48.3112 7.4 49.0667 7.4C49.8223 7.4 50.4445 7.64444 50.9334 8.13333L58.5334 15.7333C59.0223 16.2222 59.2667 16.8444 59.2667 17.6C59.2667 18.3556 59.0223 18.9778 58.5334 19.4667ZM32.0001 53.3333C37.2001 53.3333 41.6112 51.5222 45.2334 47.9C48.8556 44.2778 50.6667 39.8667 50.6667 34.6667C50.6667 29.4667 48.8556 25.0556 45.2334 21.4333C41.6112 17.8111 37.2001 16 32.0001 16C26.8001 16 22.389 17.8111 18.7667 21.4333C15.1445 25.0556 13.3334 29.4667 13.3334 34.6667C13.3334 39.8667 15.1445 44.2778 18.7667 47.9C22.389 51.5222 26.8001 53.3333 32.0001 53.3333Z" fill="#1C1B1F"/>
</g>
</svg>
