<svg width="64" height="64" viewBox="0 0 64 64" fill="none" xmlns="http://www.w3.org/2000/svg">
<mask id="mask0_1_26" style="mask-type:alpha" maskUnits="userSpaceOnUse" x="0" y="0" width="64" height="64">
<rect width="64" height="64" fill="#D9D9D9"/>
</mask>
<g mask="url(#mask0_1_26)">
<path d="M15.6 45.6C17.8666 43.8667 20.4 42.5 23.2 41.5C26 40.5 28.9333 40 32 40C35.0666 40 38 40.5 40.8 41.5C43.6 42.5 46.1333 43.8667 48.4 45.6C49.9555 43.7778 51.1666 41.7111 52.0333 39.4C52.9 37.0889 53.3333 34.6222 53.3333 32C53.3333 26.0889 51.2555 21.0556 47.1 16.9C42.9444 12.7444 37.9111 10.6667 32 10.6667C26.0889 10.6667 21.0555 12.7444 16.9 16.9C12.7444 21.0556 10.6666 26.0889 10.6666 32C10.6666 34.6222 11.1 37.0889 11.9666 39.4C12.8333 41.7111 14.0444 43.7778 15.6 45.6ZM32 34.6667C29.3778 34.6667 27.1666 33.7667 25.3666 31.9667C23.5666 30.1667 22.6666 27.9556 22.6666 25.3333C22.6666 22.7111 23.5666 20.5 25.3666 18.7C27.1666 16.9 29.3778 16 32 16C34.6222 16 36.8333 16.9 38.6333 18.7C40.4333 20.5 41.3333 22.7111 41.3333 25.3333C41.3333 27.9556 40.4333 30.1667 38.6333 31.9667C36.8333 33.7667 34.6222 34.6667 32 34.6667ZM32 58.6667C28.3111 58.6667 24.8444 57.9667 21.6 56.5667C18.3555 55.1667 15.5333 53.2667 13.1333 50.8667C10.7333 48.4667 8.83331 45.6444 7.43331 42.4C6.03331 39.1556 5.33331 35.6889 5.33331 32C5.33331 28.3111 6.03331 24.8444 7.43331 21.6C8.83331 18.3556 10.7333 15.5333 13.1333 13.1333C15.5333 10.7333 18.3555 8.83333 21.6 7.43333C24.8444 6.03333 28.3111 5.33333 32 5.33333C35.6889 5.33333 39.1555 6.03333 42.4 7.43333C45.6444 8.83333 48.4666 10.7333 50.8666 13.1333C53.2666 15.5333 55.1666 18.3556 56.5666 21.6C57.9666 24.8444 58.6666 28.3111 58.6666 32C58.6666 35.6889 57.9666 39.1556 56.5666 42.4C55.1666 45.6444 53.2666 48.4667 50.8666 50.8667C48.4666 53.2667 45.6444 55.1667 42.4 56.5667C39.1555 57.9667 35.6889 58.6667 32 58.6667ZM32 53.3333C34.3555 53.3333 36.5778 52.9889 38.6666 52.3C40.7555 51.6111 42.6666 50.6222 44.4 49.3333C42.6666 48.0444 40.7555 47.0556 38.6666 46.3667C36.5778 45.6778 34.3555 45.3333 32 45.3333C29.6444 45.3333 27.4222 45.6778 25.3333 46.3667C23.2444 47.0556 21.3333 48.0444 19.6 49.3333C21.3333 50.6222 23.2444 51.6111 25.3333 52.3C27.4222 52.9889 29.6444 53.3333 32 53.3333ZM32 29.3333C33.1555 29.3333 34.1111 28.9556 34.8666 28.2C35.6222 27.4444 36 26.4889 36 25.3333C36 24.1778 35.6222 23.2222 34.8666 22.4667C34.1111 21.7111 33.1555 21.3333 32 21.3333C30.8444 21.3333 29.8889 21.7111 29.1333 22.4667C28.3778 23.2222 28 24.1778 28 25.3333C28 26.4889 28.3778 27.4444 29.1333 28.2C29.8889 28.9556 30.8444 29.3333 32 29.3333Z" fill="#1C1B1F"/>
</g>
</svg>
