<svg width="64" height="64" viewBox="0 0 64 64" fill="none" xmlns="http://www.w3.org/2000/svg">
<mask id="mask0_1_32" style="mask-type:alpha" maskUnits="userSpaceOnUse" x="0" y="0" width="64" height="64">
<rect width="64" height="64" fill="#D9D9D9"/>
</mask>
<g mask="url(#mask0_1_32)">
<path d="M13.3333 58.6667C11.8667 58.6667 10.6111 58.1444 9.56667 57.1C8.52222 56.0556 8 54.8 8 53.3333V16C8 14.5333 8.52222 13.2778 9.56667 12.2333C10.6111 11.1889 11.8667 10.6667 13.3333 10.6667H16V8C16 7.24444 16.2556 6.61111 16.7667 6.1C17.2778 5.58889 17.9111 5.33333 18.6667 5.33333C19.4222 5.33333 20.0556 5.58889 20.5667 6.1C21.0778 6.61111 21.3333 7.24444 21.3333 8V10.6667H42.6667V8C42.6667 7.24444 42.9222 6.61111 43.4333 6.1C43.9444 5.58889 44.5778 5.33333 45.3333 5.33333C46.0889 5.33333 46.7222 5.58889 47.2333 6.1C47.7444 6.61111 48 7.24444 48 8V10.6667H50.6667C52.1333 10.6667 53.3889 11.1889 54.4333 12.2333C55.4778 13.2778 56 14.5333 56 16V53.3333C56 54.8 55.4778 56.0556 54.4333 57.1C53.3889 58.1444 52.1333 58.6667 50.6667 58.6667H13.3333ZM13.3333 53.3333H50.6667V26.6667H13.3333V53.3333ZM13.3333 21.3333H50.6667V16H13.3333V21.3333ZM32 37.3333C31.2444 37.3333 30.6111 37.0778 30.1 36.5667C29.5889 36.0556 29.3333 35.4222 29.3333 34.6667C29.3333 33.9111 29.5889 33.2778 30.1 32.7667C30.6111 32.2556 31.2444 32 32 32C32.7556 32 33.3889 32.2556 33.9 32.7667C34.4111 33.2778 34.6667 33.9111 34.6667 34.6667C34.6667 35.4222 34.4111 36.0556 33.9 36.5667C33.3889 37.0778 32.7556 37.3333 32 37.3333ZM21.3333 37.3333C20.5778 37.3333 19.9444 37.0778 19.4333 36.5667C18.9222 36.0556 18.6667 35.4222 18.6667 34.6667C18.6667 33.9111 18.9222 33.2778 19.4333 32.7667C19.9444 32.2556 20.5778 32 21.3333 32C22.0889 32 22.7222 32.2556 23.2333 32.7667C23.7444 33.2778 24 33.9111 24 34.6667C24 35.4222 23.7444 36.0556 23.2333 36.5667C22.7222 37.0778 22.0889 37.3333 21.3333 37.3333ZM42.6667 37.3333C41.9111 37.3333 41.2778 37.0778 40.7667 36.5667C40.2556 36.0556 40 35.4222 40 34.6667C40 33.9111 40.2556 33.2778 40.7667 32.7667C41.2778 32.2556 41.9111 32 42.6667 32C43.4222 32 44.0556 32.2556 44.5667 32.7667C45.0778 33.2778 45.3333 33.9111 45.3333 34.6667C45.3333 35.4222 45.0778 36.0556 44.5667 36.5667C44.0556 37.0778 43.4222 37.3333 42.6667 37.3333ZM32 48C31.2444 48 30.6111 47.7444 30.1 47.2333C29.5889 46.7222 29.3333 46.0889 29.3333 45.3333C29.3333 44.5778 29.5889 43.9444 30.1 43.4333C30.6111 42.9222 31.2444 42.6667 32 42.6667C32.7556 42.6667 33.3889 42.9222 33.9 43.4333C34.4111 43.9444 34.6667 44.5778 34.6667 45.3333C34.6667 46.0889 34.4111 46.7222 33.9 47.2333C33.3889 47.7444 32.7556 48 32 48ZM21.3333 48C20.5778 48 19.9444 47.7444 19.4333 47.2333C18.9222 46.7222 18.6667 46.0889 18.6667 45.3333C18.6667 44.5778 18.9222 43.9444 19.4333 43.4333C19.9444 42.9222 20.5778 42.6667 21.3333 42.6667C22.0889 42.6667 22.7222 42.9222 23.2333 43.4333C23.7444 43.9444 24 44.5778 24 45.3333C24 46.0889 23.7444 46.7222 23.2333 47.2333C22.7222 47.7444 22.0889 48 21.3333 48ZM42.6667 48C41.9111 48 41.2778 47.7444 40.7667 47.2333C40.2556 46.7222 40 46.0889 40 45.3333C40 44.5778 40.2556 43.9444 40.7667 43.4333C41.2778 42.9222 41.9111 42.6667 42.6667 42.6667C43.4222 42.6667 44.0556 42.9222 44.5667 43.4333C45.0778 43.9444 45.3333 44.5778 45.3333 45.3333C45.3333 46.0889 45.0778 46.7222 44.5667 47.2333C44.0556 47.7444 43.4222 48 42.6667 48Z" fill="#1C1B1F"/>
</g>
</svg>
