<svg width="48" height="48" viewBox="0 0 48 48" fill="none" xmlns="http://www.w3.org/2000/svg">
<mask id="mask0_7_26" style="mask-type:alpha" maskUnits="userSpaceOnUse" x="0" y="0" width="48" height="48">
<rect width="48" height="48" fill="#D9D9D9"/>
</mask>
<g mask="url(#mask0_7_26)">
<path d="M16.0001 34.35V13.65C16.0001 13.0833 16.2001 12.6083 16.6001 12.225C17.0001 11.8416 17.4668 11.65 18.0001 11.65C18.1668 11.65 18.3418 11.675 18.5251 11.725C18.7085 11.775 18.8835 11.85 19.0501 11.95L35.3501 22.3C35.6501 22.5 35.8751 22.75 36.0251 23.05C36.1751 23.35 36.2501 23.6666 36.2501 24C36.2501 24.3333 36.1751 24.65 36.0251 24.95C35.8751 25.25 35.6501 25.5 35.3501 25.7L19.0501 36.05C18.8835 36.15 18.7085 36.225 18.5251 36.275C18.3418 36.325 18.1668 36.35 18.0001 36.35C17.4668 36.35 17.0001 36.1583 16.6001 35.775C16.2001 35.3916 16.0001 34.9166 16.0001 34.35ZM20.0001 30.7L30.5001 24L20.0001 17.3V30.7Z" fill="white"/>
</g>
</svg>
